<svg width="225" height="64" viewBox="0 0 225 64" fill="none" xmlns="http://www.w3.org/2000/svg" class="logo" id="logo">
<path d="M76.8565 23.3703C78.2365 23.3703 79.3665 23.5603 80.2465 23.9403C81.1265 24.3203 81.9165 24.7803 82.6165 25.3203C82.8365 25.5003 83.0365 25.5903 83.2165 25.5903C83.5965 25.5903 83.8465 24.9903 83.9665 23.7903H84.6565C84.6165 24.5703 84.5865 25.5303 84.5665 26.6703C84.5465 27.8103 84.5365 29.3103 84.5365 31.1703H83.8465C83.7065 29.8503 83.4765 28.7303 83.1565 27.8103C82.8365 26.8703 82.2265 26.0703 81.3265 25.4103C80.8665 25.0303 80.3165 24.7403 79.6765 24.5403C79.0565 24.3203 78.4365 24.2103 77.8165 24.2103C76.6965 24.2103 75.7465 24.5203 74.9665 25.1403C74.2065 25.7403 73.5865 26.5403 73.1065 27.5403C72.6265 28.5203 72.2765 29.6203 72.0565 30.8403C71.8565 32.0403 71.7565 33.2503 71.7565 34.4703C71.7565 38.0703 72.2165 40.7003 73.1365 42.3603C74.0765 44.0203 75.3765 44.8503 77.0365 44.8503C77.4365 44.8503 77.7865 44.8103 78.0865 44.7303C78.3865 44.6303 78.6365 44.5103 78.8365 44.3703C79.0965 44.1903 79.2765 43.9803 79.3765 43.7403C79.4765 43.5003 79.5265 43.2003 79.5265 42.8403V39.8703C79.5265 38.9303 79.4465 38.2303 79.2865 37.7703C79.1265 37.2903 78.8265 36.9703 78.3865 36.8103C77.9665 36.6303 77.3365 36.5303 76.4965 36.5103V35.9103C76.9365 35.9303 77.4665 35.9503 78.0865 35.9703C78.7065 35.9703 79.3565 35.9803 80.0365 36.0003C80.7165 36.0003 81.3465 36.0003 81.9265 36.0003C82.8265 36.0003 83.6465 35.9903 84.3865 35.9703C85.1465 35.9503 85.7665 35.9303 86.2465 35.9103V36.5103C85.8865 36.5303 85.6065 36.6003 85.4065 36.7203C85.2265 36.8403 85.1065 37.0803 85.0465 37.4403C84.9865 37.8003 84.9565 38.3503 84.9565 39.0903V45.0303H84.3565C84.3365 44.6903 84.2565 44.3203 84.1165 43.9203C83.9765 43.5203 83.7465 43.3203 83.4265 43.3203C83.2865 43.3203 83.0865 43.3603 82.8265 43.4403C82.5665 43.5203 82.1565 43.7003 81.5965 43.9803C80.8565 44.3803 80.0565 44.7303 79.1965 45.0303C78.3565 45.3103 77.4965 45.4503 76.6165 45.4503C74.1965 45.4503 72.1665 45.0203 70.5265 44.1603C68.9065 43.3003 67.6865 42.0703 66.8665 40.4703C66.0465 38.8503 65.6365 36.9003 65.6365 34.6203C65.6365 32.3603 66.1165 30.3903 67.0765 28.7103C68.0365 27.0303 69.3565 25.7203 71.0365 24.7803C72.7365 23.8403 74.6765 23.3703 76.8565 23.3703ZM95.34 29.0703C96.84 29.0703 98.15 29.3403 99.27 29.8803C100.41 30.4003 101.29 31.2603 101.91 32.4603C102.55 33.6603 102.87 35.2603 102.87 37.2603C102.87 39.2603 102.55 40.8603 101.91 42.0603C101.29 43.2603 100.41 44.1303 99.27 44.6703C98.15 45.1903 96.84 45.4503 95.34 45.4503C93.86 45.4503 92.55 45.1903 91.41 44.6703C90.29 44.1303 89.41 43.2603 88.77 42.0603C88.13 40.8603 87.81 39.2603 87.81 37.2603C87.81 35.2603 88.13 33.6603 88.77 32.4603C89.41 31.2603 90.29 30.4003 91.41 29.8803C92.55 29.3403 93.86 29.0703 95.34 29.0703ZM95.34 29.6703C94.64 29.6703 94.05 30.2703 93.57 31.4703C93.11 32.6503 92.88 34.5803 92.88 37.2603C92.88 39.9403 93.11 41.8803 93.57 43.0803C94.05 44.2603 94.64 44.8503 95.34 44.8503C96.06 44.8503 96.65 44.2603 97.11 43.0803C97.57 41.8803 97.8 39.9403 97.8 37.2603C97.8 34.5803 97.57 32.6503 97.11 31.4703C96.65 30.2703 96.06 29.6703 95.34 29.6703ZM112.449 29.0703C113.949 29.0703 115.259 29.3403 116.379 29.8803C117.519 30.4003 118.399 31.2603 119.019 32.4603C119.659 33.6603 119.979 35.2603 119.979 37.2603C119.979 39.2603 119.659 40.8603 119.019 42.0603C118.399 43.2603 117.519 44.1303 116.379 44.6703C115.259 45.1903 113.949 45.4503 112.449 45.4503C110.969 45.4503 109.659 45.1903 108.519 44.6703C107.399 44.1303 106.519 43.2603 105.879 42.0603C105.239 40.8603 104.919 39.2603 104.919 37.2603C104.919 35.2603 105.239 33.6603 105.879 32.4603C106.519 31.2603 107.399 30.4003 108.519 29.8803C109.659 29.3403 110.969 29.0703 112.449 29.0703ZM112.449 29.6703C111.749 29.6703 111.159 30.2703 110.679 31.4703C110.219 32.6503 109.989 34.5803 109.989 37.2603C109.989 39.9403 110.219 41.8803 110.679 43.0803C111.159 44.2603 111.749 44.8503 112.449 44.8503C113.169 44.8503 113.759 44.2603 114.219 43.0803C114.679 41.8803 114.909 39.9403 114.909 37.2603C114.909 34.5803 114.679 32.6503 114.219 31.4703C113.759 30.2703 113.169 29.6703 112.449 29.6703ZM136.789 21.5703V41.7303C136.789 42.6303 136.919 43.3003 137.179 43.7403C137.459 44.1603 137.929 44.3703 138.589 44.3703V45.0003C137.969 44.9403 137.349 44.9103 136.729 44.9103C135.829 44.9103 134.979 44.9403 134.179 45.0003C133.379 45.0603 132.629 45.1703 131.929 45.3303V25.1703C131.929 24.2703 131.799 23.6103 131.539 23.1903C131.299 22.7503 130.829 22.5303 130.129 22.5303V21.9003C130.769 21.9603 131.389 21.9903 131.989 21.9903C132.909 21.9903 133.769 21.9603 134.569 21.9003C135.369 21.8203 136.109 21.7103 136.789 21.5703ZM128.719 29.0703C129.599 29.0703 130.359 29.2003 130.999 29.4603C131.639 29.7003 132.169 30.1103 132.589 30.6903L132.229 30.9903C131.969 30.6503 131.649 30.4003 131.269 30.2403C130.909 30.0803 130.529 30.0003 130.129 30.0003C129.169 30.0003 128.419 30.6003 127.879 31.8003C127.359 32.9803 127.099 34.8003 127.099 37.2603C127.099 38.9803 127.199 40.3403 127.399 41.3403C127.619 42.3203 127.909 43.0103 128.269 43.4103C128.649 43.8103 129.069 44.0103 129.529 44.0103C130.149 44.0103 130.699 43.7803 131.179 43.3203C131.679 42.8403 131.939 42.2103 131.959 41.4303L132.049 42.6903C131.689 43.6103 131.189 44.3003 130.549 44.7603C129.929 45.2203 129.129 45.4503 128.149 45.4503C126.989 45.4503 125.939 45.1603 124.999 44.5803C124.079 44.0003 123.349 43.1103 122.809 41.9103C122.289 40.6903 122.029 39.1103 122.029 37.1703C122.029 35.3503 122.309 33.8503 122.869 32.6703C123.449 31.4703 124.239 30.5703 125.239 29.9703C126.259 29.3703 127.419 29.0703 128.719 29.0703ZM163.251 23.7903C163.171 24.7503 163.111 25.6703 163.071 26.5503C163.051 27.4303 163.041 28.1103 163.041 28.5903C163.041 29.0303 163.051 29.4403 163.071 29.8203C163.091 30.2003 163.111 30.5303 163.131 30.8103H162.441C162.141 29.2103 161.721 27.9503 161.181 27.0303C160.661 26.0903 160.051 25.4303 159.351 25.0503C158.671 24.6703 157.921 24.4803 157.101 24.4803H156.411C155.871 24.4803 155.451 24.5303 155.151 24.6303C154.871 24.7103 154.681 24.8903 154.581 25.1703C154.501 25.4503 154.461 25.8903 154.461 26.4903V41.6103C154.461 42.4103 154.541 43.0103 154.701 43.4103C154.861 43.7903 155.181 44.0403 155.661 44.1603C156.141 44.2803 156.831 44.3503 157.731 44.3703V45.0303C157.071 45.0103 156.221 44.9903 155.181 44.9703C154.141 44.9503 153.051 44.9403 151.911 44.9403C151.011 44.9403 150.121 44.9503 149.241 44.9703C148.381 44.9903 147.581 45.0103 146.841 45.0303V44.4303C147.461 44.3903 147.921 44.3103 148.221 44.1903C148.541 44.0703 148.751 43.8303 148.851 43.4703C148.971 43.1103 149.031 42.5703 149.031 41.8503V26.9703C149.031 26.2303 148.971 25.6903 148.851 25.3503C148.751 24.9903 148.541 24.7503 148.221 24.6303C147.921 24.4903 147.461 24.4103 146.841 24.3903V23.7903C147.701 23.8103 148.601 23.8303 149.541 23.8503C150.501 23.8503 151.441 23.8603 152.361 23.8803C153.301 23.8803 154.171 23.8803 154.971 23.8803C155.791 23.8803 156.461 23.8803 156.981 23.8803C157.901 23.8803 158.941 23.8803 160.101 23.8803C161.281 23.8603 162.331 23.8303 163.251 23.7903ZM158.841 34.1103C158.841 34.1103 158.841 34.2103 158.841 34.4103C158.841 34.6103 158.841 34.7103 158.841 34.7103H153.561C153.561 34.7103 153.561 34.6103 153.561 34.4103C153.561 34.2103 153.561 34.1103 153.561 34.1103H158.841ZM159.651 30.1503C159.571 31.2903 159.531 32.1603 159.531 32.7603C159.551 33.3603 159.561 33.9103 159.561 34.4103C159.561 34.9103 159.571 35.4603 159.591 36.0603C159.611 36.6603 159.661 37.5303 159.741 38.6703H159.051C158.931 37.9503 158.711 37.2903 158.391 36.6903C158.071 36.0903 157.641 35.6103 157.101 35.2503C156.581 34.8903 155.921 34.7103 155.121 34.7103V34.1103C155.701 34.1103 156.211 33.9903 156.651 33.7503C157.091 33.4903 157.461 33.1603 157.761 32.7603C158.081 32.3603 158.341 31.9303 158.541 31.4703C158.741 31.0103 158.881 30.5703 158.961 30.1503H159.651ZM171.688 29.0703C173.188 29.0703 174.498 29.3403 175.618 29.8803C176.758 30.4003 177.638 31.2603 178.258 32.4603C178.898 33.6603 179.218 35.2603 179.218 37.2603C179.218 39.2603 178.898 40.8603 178.258 42.0603C177.638 43.2603 176.758 44.1303 175.618 44.6703C174.498 45.1903 173.188 45.4503 171.688 45.4503C170.208 45.4503 168.898 45.1903 167.758 44.6703C166.638 44.1303 165.758 43.2603 165.118 42.0603C164.478 40.8603 164.158 39.2603 164.158 37.2603C164.158 35.2603 164.478 33.6603 165.118 32.4603C165.758 31.2603 166.638 30.4003 167.758 29.8803C168.898 29.3403 170.208 29.0703 171.688 29.0703ZM171.688 29.6703C170.988 29.6703 170.398 30.2703 169.918 31.4703C169.458 32.6503 169.228 34.5803 169.228 37.2603C169.228 39.9403 169.458 41.8803 169.918 43.0803C170.398 44.2603 170.988 44.8503 171.688 44.8503C172.408 44.8503 172.998 44.2603 173.458 43.0803C173.918 41.8803 174.148 39.9403 174.148 37.2603C174.148 34.5803 173.918 32.6503 173.458 31.4703C172.998 30.2703 172.408 29.6703 171.688 29.6703ZM188.797 29.0703C190.297 29.0703 191.607 29.3403 192.727 29.8803C193.867 30.4003 194.747 31.2603 195.367 32.4603C196.007 33.6603 196.327 35.2603 196.327 37.2603C196.327 39.2603 196.007 40.8603 195.367 42.0603C194.747 43.2603 193.867 44.1303 192.727 44.6703C191.607 45.1903 190.297 45.4503 188.797 45.4503C187.317 45.4503 186.007 45.1903 184.867 44.6703C183.747 44.1303 182.867 43.2603 182.227 42.0603C181.587 40.8603 181.267 39.2603 181.267 37.2603C181.267 35.2603 181.587 33.6603 182.227 32.4603C182.867 31.2603 183.747 30.4003 184.867 29.8803C186.007 29.3403 187.317 29.0703 188.797 29.0703ZM188.797 29.6703C188.097 29.6703 187.507 30.2703 187.027 31.4703C186.567 32.6503 186.337 34.5803 186.337 37.2603C186.337 39.9403 186.567 41.8803 187.027 43.0803C187.507 44.2603 188.097 44.8503 188.797 44.8503C189.517 44.8503 190.107 44.2603 190.567 43.0803C191.027 41.8803 191.257 39.9403 191.257 37.2603C191.257 34.5803 191.027 32.6503 190.567 31.4703C190.107 30.2703 189.517 29.6703 188.797 29.6703ZM213.136 21.5703V41.7303C213.136 42.6303 213.266 43.3003 213.526 43.7403C213.806 44.1603 214.276 44.3703 214.936 44.3703V45.0003C214.316 44.9403 213.696 44.9103 213.076 44.9103C212.176 44.9103 211.326 44.9403 210.526 45.0003C209.726 45.0603 208.976 45.1703 208.276 45.3303V25.1703C208.276 24.2703 208.146 23.6103 207.886 23.1903C207.646 22.7503 207.176 22.5303 206.476 22.5303V21.9003C207.116 21.9603 207.736 21.9903 208.336 21.9903C209.256 21.9903 210.116 21.9603 210.916 21.9003C211.716 21.8203 212.456 21.7103 213.136 21.5703ZM205.066 29.0703C205.946 29.0703 206.706 29.2003 207.346 29.4603C207.986 29.7003 208.516 30.1103 208.936 30.6903L208.576 30.9903C208.316 30.6503 207.996 30.4003 207.616 30.2403C207.256 30.0803 206.876 30.0003 206.476 30.0003C205.516 30.0003 204.766 30.6003 204.226 31.8003C203.706 32.9803 203.446 34.8003 203.446 37.2603C203.446 38.9803 203.546 40.3403 203.746 41.3403C203.966 42.3203 204.256 43.0103 204.616 43.4103C204.996 43.8103 205.416 44.0103 205.876 44.0103C206.496 44.0103 207.046 43.7803 207.526 43.3203C208.026 42.8403 208.286 42.2103 208.306 41.4303L208.396 42.6903C208.036 43.6103 207.536 44.3003 206.896 44.7603C206.276 45.2203 205.476 45.4503 204.496 45.4503C203.336 45.4503 202.286 45.1603 201.346 44.5803C200.426 44.0003 199.696 43.1103 199.156 41.9103C198.636 40.6903 198.376 39.1103 198.376 37.1703C198.376 35.3503 198.656 33.8503 199.216 32.6703C199.796 31.4703 200.586 30.5703 201.586 29.9703C202.606 29.3703 203.766 29.0703 205.066 29.0703Z" fill="white"/>
<path fill-rule="evenodd" clip-rule="evenodd" d="M56.7341 15.7882C57.2833 14.8059 56.038 15.1038 56.038 15.1038C56.038 15.1038 47.7357 22.7587 46.5818 21.8207C45.4279 20.8827 54.7107 13.5459 53.6122 12.1749C52.5958 10.897 44.4404 20.0205 43.4607 18.9061C42.4904 17.794 50.4443 9.80888 50.4443 9.80888C50.4443 9.80888 50.7466 8.60672 49.7318 9.13351C37.2263 15.593 35.6333 21.6151 35.6333 21.6151C35.6333 21.6151 35.2029 22.788 36.1372 23.6945C36.2286 23.7733 13.3216 45.6515 10.2552 48.6051C8.76302 50.0369 14.238 55.2095 15.7208 53.7777C18.788 50.8241 41.5208 28.7868 41.6029 28.8686C42.5458 29.7728 43.7638 29.3578 43.7638 29.3578C43.7638 29.3578 50.0232 27.8232 56.7341 15.7882Z" fill="white"/>
<path fill-rule="evenodd" clip-rule="evenodd" d="M33.4582 37.8968C39.5543 43.765 49.8317 53.6546 49.8317 53.6546C49.8317 53.6546 54.3176 52.2446 54.9496 48.6051L38.641 32.9095C36.9118 34.5704 35.1842 36.2328 33.4582 37.8968ZM25.4363 32.8105C27.623 30.7118 29.8071 28.6106 31.9887 26.507L14.2637 9.44942C14.2637 9.44942 13.9434 9.12674 13.2379 9.80737C11.8371 11.1484 9.12697 19.6925 20.6168 30.7453C22.4379 32.4983 24.0223 32.7414 25.4363 32.8105Z" fill="white"/>
</svg>
